<?xml version="1.0" encoding="utf-8"?>
<!-- Generator: Adobe Illustrator 13.0.2, SVG Export Plug-In . SVG Version: 6.00 Build 14948)  -->
<!DOCTYPE svg PUBLIC "-//W3C//DTD SVG 1.1//EN" "http://www.w3.org/Graphics/SVG/1.1/DTD/svg11.dtd">
<svg version="1.1" id="Layer_1" xmlns="http://www.w3.org/2000/svg" xmlns:xlink="http://www.w3.org/1999/xlink" x="0px" y="0px"
	 width="800px" height="600px" viewBox="0 0 800 600" enable-background="new 0 0 800 600" xml:space="preserve">
<g>
	<g>
		
			<rect x="235.403" y="223.188" transform="matrix(0.7071 -0.7071 0.7071 0.7071 -108.5301 279.2979)" fill="#00A33D" width="94.927" height="94.929"/>
		<path fill="#00A33D" d="M215.672,203.747c18.536-18.531,48.586-18.531,67.125,0.005c18.533,18.531,18.533,48.584-0.002,67.124
			c-18.536,18.536-48.587,18.536-67.123,0C197.134,252.336,197.134,222.283,215.672,203.747z"/>
		<path fill="#00A33D" d="M215.817,270.581c18.536-18.535,48.587-18.535,67.122,0c18.536,18.536,18.538,48.589,0,67.125
			c-18.535,18.531-48.586,18.535-67.124,0C197.279,319.17,197.279,289.117,215.817,270.581z"/>
	</g>
	<g>
		<polygon fill="#00A33D" points="368.759,251.894 301.634,184.765 368.759,117.645 435.881,184.765 		"/>
		<path fill="#00A33D" d="M435.657,117.569c18.54,18.535,18.54,48.589,0,67.124c-18.531,18.531-48.584,18.531-67.118,0
			c-18.54-18.535-18.537-48.589,0-67.124C387.073,99.033,417.126,99.033,435.657,117.569z"/>
		<path fill="#00A33D" d="M368.83,117.716c18.533,18.531,18.533,48.584-0.002,67.12c-18.536,18.536-48.587,18.536-67.12,0
			c-18.536-18.531-18.538-48.588-0.003-67.12C320.241,99.176,350.292,99.176,368.83,117.716z"/>
	</g>
	<g>
		
			<rect x="320.056" y="307.837" transform="matrix(0.7071 -0.7071 0.7071 0.7071 -143.5925 363.9253)" fill="#00A33D" width="94.925" height="94.928"/>
		<path fill="#00A33D" d="M434.415,422.499c18.54-18.535,18.54-48.589,0-67.124c-18.531-18.531-48.579-18.531-67.117,0
			c-18.538,18.535-18.536,48.589,0,67.124C385.836,441.035,415.884,441.035,434.415,422.499z"/>
		<path fill="#00A33D" d="M367.59,422.352c18.536-18.535,18.531-48.589,0-67.12c-18.538-18.535-48.586-18.535-67.124,0
			c-18.536,18.531-18.536,48.585,0,67.12C319.002,440.888,349.052,440.888,367.59,422.352z"/>
	</g>
	<g>
		<polygon fill="#00A33D" points="386.282,269.411 453.402,336.535 520.531,269.411 453.402,202.291 		"/>
		<path fill="#00A33D" d="M520.603,202.51c-18.54-18.535-48.589-18.535-67.129,0c-18.531,18.531-18.531,48.589,0,67.12
			c18.54,18.54,48.598,18.54,67.129,0C539.134,251.099,539.134,221.041,520.603,202.51z"/>
		<path fill="#00A33D" d="M520.45,269.34c-18.531-18.536-48.588-18.536-67.119,0c-18.541,18.54-18.541,48.593,0,67.119
			c18.531,18.536,48.588,18.541,67.119,0.005C538.99,317.933,538.99,287.88,520.45,269.34z"/>
	</g>
</g>
</svg>
